# Blender v2.79 (sub 0) OBJ File: ''
# www.blender.org
mtllib lens.mtl
o Sphere
v -0.195815 0.006884 0.160386
v -0.472852 -0.069624 0.472189
v -0.464118 -0.028224 -0.143172
v 0.162624 0.009978 0.118764
v 0.464113 -0.028224 0.143171
v 0.129048 0.006362 -0.195691
v 0.460148 -0.032151 -0.197601
v -0.623702 -0.068162 0.217699
v -0.161508 -0.009325 -0.355926
v 0.210723 -0.065818 -0.627500
v -0.131206 -0.026017 0.457731
v -0.663026 -0.070404 0.055157
v -0.631625 -0.069970 -0.214387
v -0.445305 -0.001571 0.384021
v -0.420453 0.094134 -0.019319
v -0.315468 0.073470 0.336255
v -0.042339 -0.070655 -0.669967
v -0.042338 -0.070655 0.669967
v -0.140433 0.135227 0.290056
v -0.137516 0.175760 0.048778
v 0.144479 0.165076 0.146597
v 0.037430 0.142761 0.296587
v 0.222322 0.085409 0.382346
v 0.287990 0.143160 -0.080979
v 0.217273 0.064409 -0.426303
v 0.502835 0.048386 -0.048778
v 0.411268 0.064535 -0.242263
v 0.382516 0.005296 -0.426701
v 0.382515 0.005296 0.426702
v 0.481270 0.041136 0.206498
v 0.638503 -0.069851 0.183001
v -0.356425 0.020006 -0.423602
v 0.043898 0.186499 -0.019320
v 0.335174 -0.068114 -0.575707
v -0.516895 0.034328 0.121041
v -0.313643 0.132020 0.105253
v -0.467507 0.051982 -0.194271
v -0.219264 0.139898 -0.223013
v -0.164113 0.026860 -0.518040
v -0.113794 0.045937 0.503981
v -0.061662 0.170636 -0.162927
v -0.011199 0.115503 -0.378129
v 0.114609 0.026393 0.529606
v 0.189821 0.137304 -0.249108
v 0.086459 0.025353 -0.538011
v 0.335174 -0.068114 0.575707
v 0.331192 0.118226 0.146597
v -0.472852 -0.069624 -0.472190
v -0.284037 -0.071072 -0.605402
v 0.663025 -0.070404 -0.055158
v 0.617897 -0.069907 -0.250208
v 0.519803 -0.070468 -0.413525
v -0.284035 -0.071072 0.605402
v 0.210723 -0.065818 0.627500
v 0.519803 -0.070468 0.413525
vn 0.2316 -0.9725 0.0254
vn 0.1681 -0.9852 -0.0347
vn 0.1589 -0.9822 -0.0998
vn 0.0883 -0.9954 0.0371
vn 0.0353 -0.9988 0.0337
vn -0.0041 -0.9940 -0.1091
vn -0.0764 -0.9872 -0.1399
vn -0.1250 -0.9839 -0.1280
vn -0.0341 -0.9868 0.1585
vn -0.1154 -0.9930 0.0237
vn -0.1138 -0.9848 0.1313
vn -0.2276 -0.9735 -0.0212
vn -0.5897 0.8048 -0.0674
vn -0.3482 0.7916 0.5022
vn -0.4205 0.8766 0.2341
vn -0.4256 0.9003 0.0911
vn -0.5368 0.7767 -0.3295
vn -0.1891 0.9688 0.1605
vn -0.3444 0.9296 -0.1313
vn -0.2751 0.9598 -0.0561
vn -0.3491 0.8900 -0.2932
vn -0.2828 0.8077 -0.5173
vn -0.2946 0.8210 0.4890
vn -0.2678 0.9345 0.2347
vn -0.0072 0.9905 0.1370
vn -0.1608 0.9836 -0.0814
vn -0.0785 0.9955 -0.0522
vn -0.0858 0.9601 -0.2661
vn -0.0352 0.8612 -0.5071
vn 0.1073 0.8927 -0.4378
vn 0.0935 0.7594 -0.6438
vn 0.0916 0.7682 0.6336
vn 0.0275 0.8979 0.4393
vn 0.0837 0.9023 0.4229
vn 0.1720 0.9491 0.2639
vn 0.2464 0.8239 0.5104
vn 0.2757 0.8247 0.4939
vn 0.3574 0.8831 0.3040
vn 0.3459 0.8942 0.2842
vn 0.2429 0.9682 0.0600
vn 0.3109 0.9261 -0.2138
vn 0.3187 0.8929 -0.3180
vn 0.4158 0.9013 -0.1216
vn 0.5313 0.8273 -0.1824
vn 0.4797 0.8109 -0.3352
vn 0.4535 0.7339 0.5057
vn 0.4362 0.8977 0.0623
vn 0.5815 0.8115 0.0580
vn 0.5869 0.7986 -0.1337
vn -0.5385 0.8028 0.2562
vn 0.2367 0.8124 0.5328
vn -0.6024 0.7118 0.3612
vn 0.1210 -0.9758 0.1821
vn 0.2309 0.8234 -0.5183
vn 0.1928 -0.9742 0.1175
vn -0.2071 -0.9722 -0.1092
vn 0.1172 -0.9772 -0.1768
vn 0.1789 -0.9834 -0.0297
vn 0.1198 -0.9836 -0.1349
vn 0.1455 -0.9821 0.1197
vn 0.0098 -0.9999 0.0104
vn -0.0126 -0.9823 0.1870
vn -0.0148 -0.9797 -0.1999
vn -0.0440 -0.9887 -0.1431
vn -0.1147 -0.9855 -0.1251
vn -0.1267 -0.9919 0.0129
vn -0.0804 -0.9855 0.1495
vn -0.1332 -0.9815 0.1374
vn -0.1945 -0.9808 0.0136
vn -0.6175 0.7743 0.1387
vn -0.5691 0.8212 -0.0432
vn -0.3676 0.7646 -0.5294
vn -0.4085 0.8856 0.2212
vn -0.5716 0.8193 -0.0437
vn -0.4783 0.8079 -0.3443
vn -0.2559 0.9654 -0.0504
vn -0.2208 0.8962 -0.3847
vn -0.2903 0.8321 0.4727
vn -0.2097 0.8928 0.3987
vn -0.0398 0.8261 -0.5622
vn -0.0533 0.9192 0.3903
vn -0.0478 0.9851 0.1649
vn -0.1775 0.9074 -0.3809
vn -0.0147 0.9905 0.1368
vn 0.1793 0.9836 0.0183
vn 0.0744 0.9838 -0.1634
vn 0.1445 0.9824 -0.1186
vn 0.0472 0.9702 -0.2375
vn 0.1307 0.9238 -0.3598
vn 0.0058 0.8195 0.5731
vn 0.2362 0.9415 0.2402
vn 0.3036 0.8924 -0.3339
vn 0.2220 0.8098 -0.5431
vn 0.2915 0.8181 -0.4957
vn 0.5103 0.8025 -0.3092
vn 0.4535 0.7339 -0.5057
vn 0.4786 0.8070 0.3460
vn 0.4004 0.9160 0.0243
vn 0.5959 0.7997 0.0731
vn 0.0585 -0.9754 0.2127
vn -0.2174 -0.9749 0.0478
vn 0.5796 0.7575 0.3005
vn 0.0633 -0.9710 -0.2307
vn -0.1681 0.7628 -0.6244
vn -0.1652 0.7722 0.6135
vn -0.1933 -0.9739 0.1194
usemtl None
s off
f 3//1 12//1 13//1
f 8//2 3//2 1//2
f 1//3 2//3 8//3
f 1//4 3//4 9//4
f 6//5 1//5 9//5
f 4//6 11//6 1//6
f 4//7 46//7 54//7
f 5//8 55//8 46//8
f 6//9 9//9 10//9
f 7//10 4//10 6//10
f 6//11 34//11 7//11
f 5//12 50//12 31//12
f 12//13 37//13 13//13
f 2//14 53//14 14//14
f 16//15 35//15 14//15
f 35//16 36//16 15//16
f 37//17 48//17 13//17
f 36//18 19//18 20//18
f 38//19 37//19 15//19
f 15//20 36//20 38//20
f 38//21 32//21 37//21
f 39//22 49//22 32//22
f 16//23 14//23 40//23
f 19//24 36//24 16//24
f 20//25 22//25 33//25
f 38//26 20//26 41//26
f 20//27 33//27 41//27
f 38//28 41//28 42//28
f 42//29 45//29 39//29
f 42//30 25//30 45//30
f 45//31 10//31 17//31
f 54//32 43//32 18//32
f 22//33 40//33 43//33
f 23//34 22//34 43//34
f 23//35 21//35 22//35
f 23//36 43//36 46//36
f 23//37 46//37 29//37
f 23//38 29//38 30//38
f 30//39 47//39 23//39
f 24//40 21//40 47//40
f 24//41 27//41 44//41
f 44//42 28//42 25//42
f 26//43 27//43 24//43
f 26//44 51//44 27//44
f 27//45 52//45 28//45
f 29//46 46//46 55//46
f 26//47 47//47 30//47
f 50//48 30//48 31//48
f 50//49 51//49 26//49
f 35//50 8//50 14//50
f 43//51 54//51 46//51
f 2//52 14//52 8//52
f 48//53 49//53 9//53
f 10//54 45//54 34//54
f 13//55 48//55 3//55
f 31//56 55//56 5//56
f 2//57 11//57 53//57
f 12//58 3//58 8//58
f 1//59 11//59 2//59
f 9//60 3//60 48//60
f 6//61 4//61 1//61
f 10//62 9//62 17//62
f 18//63 11//63 54//63
f 4//64 54//64 11//64
f 4//65 5//65 46//65
f 7//66 5//66 4//66
f 6//67 10//67 34//67
f 7//68 34//68 52//68
f 50//69 5//69 7//69
f 12//70 8//70 35//70
f 12//71 35//71 37//71
f 32//72 49//72 48//72
f 16//73 36//73 35//73
f 37//74 35//74 15//74
f 37//75 32//75 48//75
f 36//76 20//76 38//76
f 32//77 38//77 39//77
f 40//78 14//78 53//78
f 40//79 19//79 16//79
f 39//80 45//80 17//80
f 40//81 22//81 19//81
f 20//82 19//82 22//82
f 39//83 38//83 42//83
f 21//84 33//84 22//84
f 21//85 24//85 33//85
f 33//86 44//86 41//86
f 33//87 24//87 44//87
f 42//88 41//88 44//88
f 42//89 44//89 25//89
f 43//90 40//90 18//90
f 47//91 21//91 23//91
f 44//92 27//92 28//92
f 25//93 34//93 45//93
f 25//94 28//94 34//94
f 27//95 51//95 52//95
f 28//96 52//96 34//96
f 30//97 29//97 55//97
f 26//98 24//98 47//98
f 50//99 26//99 30//99
f 49//100 17//100 9//100
f 51//101 50//101 7//101
f 55//102 31//102 30//102
f 53//103 11//103 18//103
f 17//104 49//104 39//104
f 53//105 18//105 40//105
f 52//106 51//106 7//106
